HIERARCHY
ROOT Root
{
  OFFSET 0.0 0.0 0.0
  CHANNELS 6 Xposition Yposition Zposition Zrotation Yrotation Xrotation
  JOINT Hips
  {
    OFFSET 0.0 100.0 0.0
    CHANNELS 6 Xposition Yposition Zposition Zrotation Yrotation Xrotation
    JOINT Spine1
    {
      OFFSET 5.003913 -0.037094 -0.013727
      CHANNELS 3 Zrotation Yrotation Xrotation
      JOINT Spine2
      {
        OFFSET 7.125363 -1e-06 0.0
        CHANNELS 3 Zrotation Yrotation Xrotation
        JOINT Chest
        {
          OFFSET 7.594027 1e-06 0.0
          CHANNELS 3 Zrotation Yrotation Xrotation
          JOINT Neck1
          {
            OFFSET 26.313086 -0.460272 -0.181672
            CHANNELS 3 Zrotation Yrotation Xrotation
            JOINT Neck2
            {
              OFFSET 8.045911 0.0 0.0
              CHANNELS 3 Zrotation Yrotation Xrotation
              JOINT Head
              {
                OFFSET 6.432774 0.0 0.0
                CHANNELS 3 Zrotation Yrotation Xrotation
                JOINT HeadEnd
                {
                  OFFSET 16.169773 0.06451 0.00362
                  CHANNELS 3 Zrotation Yrotation Xrotation
                }
                JOINT Jaw
                {
                  OFFSET 0.108741 3.12938 0.002639
                  CHANNELS 3 Zrotation Yrotation Xrotation
                }
                JOINT LeftEye
                {
                  OFFSET 4.45173 8.166359 3.206392
                  CHANNELS 3 Zrotation Yrotation Xrotation
                }
                JOINT RightEye
                {
                  OFFSET 4.436895 8.135758 -3.222429
                  CHANNELS 3 Zrotation Yrotation Xrotation
                }
              }
            }
          }
          JOINT LeftShoulder
          {
            OFFSET 23.218927 5.195579 1.621656
            CHANNELS 3 Zrotation Yrotation Xrotation
            JOINT LeftArm
            {
              OFFSET 15.902118 2e-06 -2e-06
              CHANNELS 3 Zrotation Yrotation Xrotation
              JOINT LeftForeArm
              {
                OFFSET 28.739307 0.0 -1e-06
                CHANNELS 3 Zrotation Yrotation Xrotation
                JOINT LeftHand
                {
                  OFFSET 27.093981 -4e-06 0.0
                  CHANNELS 3 Zrotation Yrotation Xrotation
                  JOINT LeftHandThumb1
                  {
                    OFFSET 2.276781 3.380274 0.83384
                    CHANNELS 3 Zrotation Yrotation Xrotation
                    JOINT LeftHandThumb2
                    {
                      OFFSET 4.705309 -1e-06 -1e-06
                      CHANNELS 3 Zrotation Yrotation Xrotation
                      JOINT LeftHandThumb3
                      {
                        OFFSET 2.798515 0.0 3e-06
                        CHANNELS 3 Zrotation Yrotation Xrotation
                        JOINT LeftHandThumbEnd
                        {
                          OFFSET 3.180793 4e-06 -4e-06
                          CHANNELS 3 Zrotation Yrotation Xrotation
                        }
                      }
                    }
                  }
                  JOINT LeftHandIndex1
                  {
                    OFFSET 3.247786 2.352677 0.137192
                    CHANNELS 3 Zrotation Yrotation Xrotation
                    JOINT LeftHandIndex2
                    {
                      OFFSET 6.367095 1e-06 0.0
                      CHANNELS 3 Zrotation Yrotation Xrotation
                      JOINT LeftHandIndex3
                      {
                        OFFSET 3.662364 0.0 0.0
                        CHANNELS 3 Zrotation Yrotation Xrotation
                        JOINT LeftHandIndex4
                        {
                          OFFSET 2.329242 4e-06 -4e-06
                          CHANNELS 3 Zrotation Yrotation Xrotation
                          JOINT LeftHandIndexEnd
                          {
                            OFFSET 2.767823 1e-06 0.0
                            CHANNELS 3 Zrotation Yrotation Xrotation
                          }
                        }
                      }
                    }
                  }
                  JOINT LeftHandMiddle1
                  {
                    OFFSET 3.163612 0.945023 -0.406112
                    CHANNELS 3 Zrotation Yrotation Xrotation
                    JOINT LeftHandMiddle2
                    {
                      OFFSET 6.276789 3e-06 0.0
                      CHANNELS 3 Zrotation Yrotation Xrotation
                      JOINT LeftHandMiddle3
                      {
                        OFFSET 4.35652 -1e-06 4e-06
                        CHANNELS 3 Zrotation Yrotation Xrotation
                        JOINT LeftHandMiddle4
                        {
                          OFFSET 2.996877 0.0 8e-06
                          CHANNELS 3 Zrotation Yrotation Xrotation
                          JOINT LeftHandMiddleEnd
                          {
                            OFFSET 2.323256 3e-06 -4e-06
                            CHANNELS 3 Zrotation Yrotation Xrotation
                          }
                        }
                      }
                    }
                  }
                  JOINT LeftHandRing1
                  {
                    OFFSET 2.882606 -0.309162 0.107445
                    CHANNELS 3 Zrotation Yrotation Xrotation
                    JOINT LeftHandRing2
                    {
                      OFFSET 6.033198 0.0 4e-06
                      CHANNELS 3 Zrotation Yrotation Xrotation
                      JOINT LeftHandRing3
                      {
                        OFFSET 4.350578 3e-06 0.0
                        CHANNELS 3 Zrotation Yrotation Xrotation
                        JOINT LeftHandRing4
                        {
                          OFFSET 2.651321 2e-06 -7e-06
                          CHANNELS 3 Zrotation Yrotation Xrotation
                          JOINT LeftHandRingEnd
                          {
                            OFFSET 1.937663 1e-06 -4e-06
                            CHANNELS 3 Zrotation Yrotation Xrotation
                          }
                        }
                      }
                    }
                  }
                  JOINT LeftHandPinky1
                  {
                    OFFSET 2.865315 -1.525436 0.575687
                    CHANNELS 3 Zrotation Yrotation Xrotation
                    JOINT LeftHandPinky2
                    {
                      OFFSET 5.54936 1e-06 -8e-06
                      CHANNELS 3 Zrotation Yrotation Xrotation
                      JOINT LeftHandPinky3
                      {
                        OFFSET 3.070974 0.0 -4e-06
                        CHANNELS 3 Zrotation Yrotation Xrotation
                        JOINT LeftHandPinky4
                        {
                          OFFSET 1.549672 1e-06 0.0
                          CHANNELS 3 Zrotation Yrotation Xrotation
                          JOINT LeftHandPinkyEnd
                          {
                            OFFSET 1.952123 0.0 0.0
                            CHANNELS 3 Zrotation Yrotation Xrotation
                          }
                        }
                      }
                    }
                  }
                }
              }
            }
          }
          JOINT RightShoulder
          {
            OFFSET 23.161716 5.296122 -1.380114
            CHANNELS 3 Zrotation Yrotation Xrotation
            JOINT RightArm
            {
              OFFSET -16.027195 -2e-06 1.1e-05
              CHANNELS 3 Zrotation Yrotation Xrotation
              JOINT RightForeArm
              {
                OFFSET -28.736639 4e-06 2e-06
                CHANNELS 3 Zrotation Yrotation Xrotation
                JOINT RightHand
                {
                  OFFSET -27.133619 6e-06 0.0
                  CHANNELS 3 Zrotation Yrotation Xrotation
                  JOINT RightHandThumb1
                  {
                    OFFSET -2.274328 -3.351035 -0.83067
                    CHANNELS 3 Zrotation Yrotation Xrotation
                    JOINT RightHandThumb2
                    {
                      OFFSET -4.703594 -3e-06 2e-06
                      CHANNELS 3 Zrotation Yrotation Xrotation
                      JOINT RightHandThumb3
                      {
                        OFFSET -2.794935 -4e-06 -3e-06
                        CHANNELS 3 Zrotation Yrotation Xrotation
                        JOINT RightHandThumbEnd
                        {
                          OFFSET -3.183852 4e-06 1e-06
                          CHANNELS 3 Zrotation Yrotation Xrotation
                        }
                      }
                    }
                  }
                  JOINT RightHandIndex1
                  {
                    OFFSET -3.253496 -2.33755 -0.127667
                    CHANNELS 3 Zrotation Yrotation Xrotation
                    JOINT RightHandIndex2
                    {
                      OFFSET -6.344434 0.0 0.0
                      CHANNELS 3 Zrotation Yrotation Xrotation
                      JOINT RightHandIndex3
                      {
                        OFFSET -3.654871 0.0 -8e-06
                        CHANNELS 3 Zrotation Yrotation Xrotation
                        JOINT RightHandIndex4
                        {
                          OFFSET -2.327586 -1e-06 0.0
                          CHANNELS 3 Zrotation Yrotation Xrotation
                          JOINT RightHandIndexEnd
                          {
                            OFFSET -2.770001 3e-06 8e-06
                            CHANNELS 3 Zrotation Yrotation Xrotation
                          }
                        }
                      }
                    }
                  }
                  JOINT RightHandMiddle1
                  {
                    OFFSET -3.168223 -0.944764 0.411762
                    CHANNELS 3 Zrotation Yrotation Xrotation
                    JOINT RightHandMiddle2
                    {
                      OFFSET -6.266691 -1e-06 -4e-06
                      CHANNELS 3 Zrotation Yrotation Xrotation
                      JOINT RightHandMiddle3
                      {
                        OFFSET -4.348901 0.0 0.0
                        CHANNELS 3 Zrotation Yrotation Xrotation
                        JOINT RightHandMiddle4
                        {
                          OFFSET -3.00024 2e-06 -4e-06
                          CHANNELS 3 Zrotation Yrotation Xrotation
                          JOINT RightHandMiddleEnd
                          {
                            OFFSET -2.321477 -4e-06 -4e-06
                            CHANNELS 3 Zrotation Yrotation Xrotation
                          }
                        }
                      }
                    }
                  }
                  JOINT RightHandRing1
                  {
                    OFFSET -2.885654 0.293261 -0.119232
                    CHANNELS 3 Zrotation Yrotation Xrotation
                    JOINT RightHandRing2
                    {
                      OFFSET -6.032835 -1e-06 -4e-06
                      CHANNELS 3 Zrotation Yrotation Xrotation
                      JOINT RightHandRing3
                      {
                        OFFSET -4.33881 0.0 -4e-06
                        CHANNELS 3 Zrotation Yrotation Xrotation
                        JOINT RightHandRing4
                        {
                          OFFSET -2.654903 -4e-06 -4e-06
                          CHANNELS 3 Zrotation Yrotation Xrotation
                          JOINT RightHandRingEnd
                          {
                            OFFSET -1.935122 0.0 4e-06
                            CHANNELS 3 Zrotation Yrotation Xrotation
                          }
                        }
                      }
                    }
                  }
                  JOINT RightHandPinky1
                  {
                    OFFSET -2.866241 1.503904 -0.60527
                    CHANNELS 3 Zrotation Yrotation Xrotation
                    JOINT RightHandPinky2
                    {
                      OFFSET -5.553177 -2e-06 0.0
                      CHANNELS 3 Zrotation Yrotation Xrotation
                      JOINT RightHandPinky3
                      {
                        OFFSET -3.062664 -1e-06 -4e-06
                        CHANNELS 3 Zrotation Yrotation Xrotation
                        JOINT RightHandPinky4
                        {
                          OFFSET -1.546529 2e-06 4e-06
                          CHANNELS 3 Zrotation Yrotation Xrotation
                          JOINT RightHandPinkyEnd
                          {
                            OFFSET -1.952341 0.0 -4e-06
                            CHANNELS 3 Zrotation Yrotation Xrotation
                          }
                        }
                      }
                    }
                  }
                }
              }
            }
          }
        }
      }
    }
    JOINT LeftLeg
    {
      OFFSET -8.443107 2.567604 10.043214
      CHANNELS 3 Zrotation Yrotation Xrotation
      JOINT LeftShin
      {
        OFFSET 43.229198 1e-06 -1e-06
        CHANNELS 3 Zrotation Yrotation Xrotation
        JOINT LeftFoot
        {
          OFFSET 42.298611 1e-06 1e-06
          CHANNELS 3 Zrotation Yrotation Xrotation
          JOINT LeftToeBase
          {
            OFFSET 14.165858 1e-06 0.0
            CHANNELS 3 Zrotation Yrotation Xrotation
            JOINT LeftToeEnd
            {
              OFFSET 6.7141 -0.234461 0.0
              CHANNELS 3 Zrotation Yrotation Xrotation
            }
          }
        }
      }
    }
    JOINT RightLeg
    {
      OFFSET -8.303923 2.592729 -10.047278
      CHANNELS 3 Zrotation Yrotation Xrotation
      JOINT RightShin
      {
        OFFSET -43.369682 0.0 1e-06
        CHANNELS 3 Zrotation Yrotation Xrotation
        JOINT RightFoot
        {
          OFFSET -42.260784 4e-06 2e-06
          CHANNELS 3 Zrotation Yrotation Xrotation
          JOINT RightToeBase
          {
            OFFSET -14.222245 -2e-06 -1e-06
            CHANNELS 3 Zrotation Yrotation Xrotation
            JOINT RightToeEnd
            {
              OFFSET -6.660062 0.232574 -2e-06
              CHANNELS 3 Zrotation Yrotation Xrotation
            }
          }
        }
      }
    }
  }
}
MOTION
Frames: 4
Frame Time: 0.03333333333333333
0.0 0.0 0.0 0.0 -0.0 0.0 -0.587589 100.294586 -5.21701 89.436043 -0.991955 90.089806 -1.118802 0.115431 -0.152525 -11.497598 -0.680369 -1.711393 19.324654 1.695824 -3.504183 19.216663 1.857131 2.702772 -2.52599 -0.699118 1.937999 -32.189934 3.147823 -0.939884 5e-06 0.0 -0.0 -0.008487 0.004661 0.063068 0.037434 0.003791 0.053544 0.004704 0.009555 0.079296 -144.434479 -75.494263 161.506668 58.701931 -47.662598 20.246908 31.210098 -0.904432 0.043135 -5.361806 4.19171 7.928991 17.636629 -26.322731 52.41119 -19.466661 -14.395597 29.410389 -1e-06 -8.774821 -2e-06 15.871886 -17.893061 6.174103 -0.609776 -1.795655 -3.889328 -4.807087 -11.046808 -2.93785 5e-06 -20.976011 0.0 -5.01997 -25.033552 -4.03188 5e-06 -1e-06 -0.0 -10.634533 -5.686972 -3.565588 10.573275 -17.922947 -3.1139 2e-06 -13.821206 1e-06 -0.501776 -31.181501 -4.027016 -11.502068 -59.274391 7.188161 -13.982712 -7.150198 -2.875042 13.772729 -8.401491 -3.218241 0.347735 -34.211555 0.771655 -0.963028 -17.733372 2.621021 0.0 0.0 0.0 -17.346413 -20.095217 -4.201783 21.757555 -1.638375 3.866427 1e-06 -6.338823 1e-06 -1.697587 -22.591745 -6.194006 -1e-06 -3e-06 -2e-06 80.399956 -80.752716 113.46907 54.049179 -62.814732 2.679063 30.037994 -0.521704 -0.190012 -5.286998 1.964316 -5.899717 22.182108 -20.375895 49.933319 -16.701809 -16.743528 28.476522 -4e-06 -12.6906 -1e-06 16.264275 -17.750349 2.650145 -0.10592 -1.513855 -4.275881 -5.039041 -5.612869 -2.953556 4e-06 -11.02052 -1e-06 -6.111296 -15.895328 -3.840469 0.0 -1e-06 -0.0 -10.283368 -5.680286 -4.341838 11.028292 -11.302402 -2.372632 -1.384267 -14.238577 -6.320118 -0.625439 -26.924179 -3.8276 -4.441303 -49.782932 -3.847044 -13.708522 -7.363473 -3.720941 18.141146 -14.052735 -3.24267 6e-06 -18.787264 -0.0 -0.429713 -8.456043 2.555505 -1e-06 2e-06 -0.0 -15.923532 -20.094479 -5.473586 30.419207 -7.190825 1.735926 2e-06 -8.162921 -0.0 -1.8619 -22.861469 -6.167942 1e-06 -4e-06 -1e-06 176.747849 -4.403828 -20.803877 16.572145 -0.001818 0.113754 -80.261742 -3.199811 -6.083622 -3.750165 1.414787 2.159446 -1.0 -1e-06 -1e-06 0.721298 -3.86681 -11.117412 8.999488 0.03863 -0.056911 -77.750458 -1.080687 -5.939554 -4.140754 0.647886 1.678928 -1.000002 -0.0 0.0 
0.0 0.0 0.0 0.0 -0.0 0.0 -0.6276 100.302719 -5.153654 89.446533 -0.981608 90.090599 -1.124789 0.125747 -0.1786 -11.493829 -0.652393 -1.624658 19.325857 1.63932 -3.503892 19.333401 1.817111 2.703782 -2.498106 -0.680112 1.95805 -32.183769 3.154544 -0.955534 6e-06 0.0 -0.0 -0.009589 0.004232 0.093295 0.044435 0.003611 0.085088 0.013825 0.008684 0.108148 -144.579147 -75.420502 161.765167 58.662971 -47.52961 19.736362 31.24176 -0.863885 0.006592 -5.213959 4.377886 8.108804 17.636623 -26.322725 52.411186 -19.466663 -14.395596 29.410393 -1e-06 -8.774821 -2e-06 15.769478 -17.836248 6.200159 -0.609775 -1.795655 -3.889327 -4.807088 -11.046811 -2.937852 6e-06 -20.976017 -1e-06 -5.019969 -25.03356 -4.031882 6e-06 -2e-06 -0.0 -10.634533 -5.686971 -3.565587 10.573275 -17.922951 -3.113903 3e-06 -13.821211 1e-06 -0.501775 -31.181505 -4.027017 -11.381799 -59.159199 7.136834 -13.982713 -7.150199 -2.875042 13.772731 -8.401493 -3.218242 0.347735 -34.211555 0.771652 -0.963026 -17.73337 2.621018 -1e-06 1e-06 1e-06 -17.346416 -20.095221 -4.201783 21.757557 -1.638374 3.866427 1e-06 -6.338824 1e-06 -1.697587 -22.591749 -6.194009 0.0 -5e-06 -2e-06 80.506226 -80.676605 113.542351 54.095997 -62.732677 2.585874 29.976185 -0.512394 -0.215309 -5.30978 1.866053 -5.613496 22.182117 -20.375891 49.933311 -16.701815 -16.743528 28.47653 -3e-06 -12.690601 -1e-06 16.216761 -17.711617 2.645834 -0.105918 -1.513855 -4.275886 -5.039042 -5.612872 -2.953558 4e-06 -11.020524 -2e-06 -6.111297 -15.89533 -3.840472 -0.0 0.0 2e-06 -10.28337 -5.680288 -4.341841 11.028295 -11.302406 -2.372633 -1.384268 -14.23858 -6.320121 -0.625436 -26.924187 -3.827602 -4.489997 -49.837582 -3.816663 -13.708526 -7.363477 -3.720942 18.14115 -14.052739 -3.242674 8e-06 -18.787271 -2e-06 -0.429711 -8.456044 2.555502 -0.0 -1e-06 -0.0 -15.923536 -20.094482 -5.473588 30.41921 -7.190826 1.735926 3e-06 -8.162925 -1e-06 -1.861899 -22.861471 -6.167942 -0.0 -4e-06 -1e-06 176.830902 -4.390845 -20.693323 16.49642 -0.002409 0.143176 -80.218506 -3.222716 -6.211221 -3.794688 1.444077 2.172042 -1.0 -1e-06 -0.0 0.795684 -3.836038 -11.066706 8.9376 0.029856 -0.034042 -77.728767 -1.183634 -5.937423 -4.124367 0.62921 1.679085 -1.000003 0.0 -0.0 
0.0 0.0 0.0 0.0 -0.0 0.0 -0.673671 100.294769 -5.097003 89.449562 -0.974406 90.106201 -1.153936 0.14464 -0.195808 -11.510394 -0.624399 -1.582138 19.38349 1.583506 -3.497783 19.455725 1.718851 2.751436 -2.525292 -0.686082 1.908269 -32.119305 3.119914 -1.000161 6e-06 0.0 -0.0 -0.0139 0.002385 0.104525 0.030254 -0.000364 0.098253 0.000216 0.008883 0.116943 -144.568436 -75.277626 161.805466 58.437855 -47.410408 19.183245 31.304031 -0.850575 -0.013959 -5.072522 4.580842 8.114857 17.636633 -26.322737 52.411194 -19.466656 -14.395596 29.410385 -0.0 -8.774822 -2e-06 15.749624 -17.809492 6.199456 -0.609777 -1.795653 -3.889327 -4.807089 -11.046812 -2.93785 3e-06 -20.976019 2e-06 -5.019973 -25.033562 -4.03188 6e-06 1e-06 0.0 -10.634535 -5.68697 -3.565588 10.573272 -17.922955 -3.1139 2e-06 -13.821211 2e-06 -0.501779 -31.181511 -4.027017 -11.348935 -59.061802 7.104639 -13.982714 -7.150198 -2.875041 13.772729 -8.401491 -3.218241 0.347731 -34.211555 0.771658 -0.96303 -17.73337 2.621021 -1e-06 1e-06 -0.0 -17.34642 -20.095221 -4.20178 21.757557 -1.638375 3.866428 1e-06 -6.338824 1e-06 -1.697593 -22.591747 -6.194006 -1e-06 -5e-06 -2e-06 80.517586 -80.649536 113.645241 53.994766 -62.6884 2.587611 29.905567 -0.522454 -0.219027 -5.34662 1.906717 -5.437985 22.182116 -20.3759 49.933323 -16.701817 -16.74353 28.476534 -5e-06 -12.6906 1e-06 16.197947 -17.66613 2.664552 -0.10592 -1.513857 -4.275881 -5.039041 -5.612871 -2.953558 4e-06 -11.020523 -2e-06 -6.111297 -15.89533 -3.84047 -1e-06 1e-06 1e-06 -10.283371 -5.680287 -4.341839 11.028296 -11.302406 -2.372633 -1.384268 -14.238579 -6.320121 -0.625438 -26.924187 -3.827601 -4.518008 -49.831966 -3.789509 -13.708525 -7.363475 -3.720937 18.141151 -14.052739 -3.242675 6e-06 -18.78727 -0.0 -0.429711 -8.456046 2.555506 0.0 -1e-06 -2e-06 -15.923536 -20.094482 -5.473581 30.41921 -7.190826 1.735926 3e-06 -8.162925 -0.0 -1.861902 -22.861469 -6.167941 1e-06 -3e-06 -1e-06 176.85379 -4.414772 -20.621317 16.533497 -0.006732 0.15695 -80.251801 -3.191039 -6.265054 -3.73919 1.453045 2.179029 -0.999999 -1e-06 -0.0 0.877438 -3.796419 -11.008591 8.863982 0.029855 -0.022206 -77.770401 -1.32044 -5.955479 -4.08149 0.624193 1.678968 -1.000002 0.0 -0.0 
0.0 0.0 0.0 0.0 -0.0 0.0 -0.749747 100.28701 -5.047927 89.435684 -0.969662 90.112541 -1.179965 0.166669 -0.20392 -11.535357 -0.597738 -1.567256 19.447706 1.54023 -3.459711 19.595102 1.592777 2.793502 -2.56267 -0.689329 1.851818 -32.109177 3.082445 -1.012296 6e-06 0.0 -0.0 -0.019477 0.000218 0.102224 0.009769 -0.005025 0.097778 -0.020431 0.009155 0.112193 -144.534897 -75.118454 161.79332 58.121925 -47.306057 18.627932 31.322565 -0.827924 -0.030847 -4.931849 4.810921 8.141642 17.636625 -26.322741 52.411213 -19.46666 -14.395596 29.410395 -0.0 -8.77482 -2e-06 15.749455 -17.802368 6.183434 -0.609778 -1.795653 -3.889328 -4.80709 -11.046813 -2.937851 3e-06 -20.976017 1e-06 -5.01997 -25.03356 -4.031882 6e-06 0.0 -0.0 -10.634533 -5.686968 -3.56559 10.573271 -17.922951 -3.113899 2e-06 -13.821209 2e-06 -0.50178 -31.181505 -4.027014 -11.337152 -59.00621 7.068633 -13.982713 -7.150198 -2.875045 13.772727 -8.40149 -3.218241 0.347732 -34.211555 0.771655 -0.963029 -17.73337 2.62102 -1e-06 2e-06 0.0 -17.346416 -20.095217 -4.201785 21.757555 -1.638374 3.866428 0.0 -6.338824 1e-06 -1.697589 -22.591745 -6.194006 -1e-06 -4e-06 -2e-06 80.412766 -80.63353 113.821854 53.795708 -62.626434 2.763326 29.838949 -0.514396 -0.199588 -5.375522 1.969749 -5.355852 22.182108 -20.375898 49.933327 -16.701807 -16.743528 28.476526 -3e-06 -12.690598 -1e-06 16.192013 -17.628458 2.679145 -0.105919 -1.513855 -4.275881 -5.039041 -5.612871 -2.953559 3e-06 -11.02052 -2e-06 -6.111298 -15.895328 -3.840467 1e-06 0.0 -2e-06 -10.283369 -5.680288 -4.341839 11.028291 -11.302402 -2.372632 -1.38427 -14.238579 -6.320121 -0.62544 -26.924191 -3.827601 -4.525869 -49.776348 -3.770331 -13.708522 -7.363477 -3.720942 18.141146 -14.052735 -3.242673 4e-06 -18.787266 -0.0 -0.429712 -8.456043 2.555506 0.0 -1e-06 -1e-06 -15.923532 -20.094482 -5.473583 30.419205 -7.190821 1.735925 0.0 -8.162922 -1e-06 -1.861902 -22.861471 -6.167941 0.0 -4e-06 -3e-06 176.860275 -4.488942 -20.604095 16.597395 -0.012474 0.157716 -80.281334 -3.158604 -6.311616 -3.68269 1.452336 2.181576 -0.999998 0.0 0.0 0.948686 -3.727906 -10.943288 8.797886 0.033436 -0.028639 -77.810043 -1.419593 -5.946434 -4.046004 0.616955 1.676414 -1.0 -0.0 -0.0 
